<?xml version="1.0" encoding="UTF-8" standalone="no"?>
<!DOCTYPE svg PUBLIC "-//W3C//DTD SVG 1.1//EN"
 "http://www.w3.org/Graphics/SVG/1.1/DTD/svg11.dtd">
<!-- Generated by graphviz version 9.0.0 (20230911.1827)
 -->
<!-- Title: Tree Pages: 1 -->
<svg width="743pt" height="1028pt"
 viewBox="0.00 0.00 742.75 1028.00" xmlns="http://www.w3.org/2000/svg" xmlns:xlink="http://www.w3.org/1999/xlink">
<g id="graph0" class="graph" transform="scale(1 1) rotate(0) translate(4 1024)">
<title>Tree</title>
<polygon fill="white" stroke="none" points="-4,4 -4,-1024 738.75,-1024 738.75,4 -4,4"/>
<!-- 0 -->
<g id="node1" class="node">
<title>0</title>
<path fill="#ffffff" stroke="black" d="M488.25,-1020C488.25,-1020 324.5,-1020 324.5,-1020 318.5,-1020 312.5,-1014 312.5,-1008 312.5,-1008 312.5,-949 312.5,-949 312.5,-943 318.5,-937 324.5,-937 324.5,-937 488.25,-937 488.25,-937 494.25,-937 500.25,-943 500.25,-949 500.25,-949 500.25,-1008 500.25,-1008 500.25,-1014 494.25,-1020 488.25,-1020"/>
<text text-anchor="middle" x="406.38" y="-1002.7" font-family="Helvetica,sans-Serif" font-size="14.00">petal_length &lt;= 2.6</text>
<text text-anchor="middle" x="406.38" y="-987.7" font-family="Helvetica,sans-Serif" font-size="14.00">entropy = 1.585</text>
<text text-anchor="middle" x="406.38" y="-972.7" font-family="Helvetica,sans-Serif" font-size="14.00">samples = 100.0%</text>
<text text-anchor="middle" x="406.38" y="-957.7" font-family="Helvetica,sans-Serif" font-size="14.00">value = [0.333, 0.333, 0.333]</text>
<text text-anchor="middle" x="406.38" y="-942.7" font-family="Helvetica,sans-Serif" font-size="14.00">class = setosa</text>
</g>
<!-- 1 -->
<g id="node2" class="node">
<title>1</title>
<path fill="#e58139" stroke="black" d="M385.75,-893.5C385.75,-893.5 267,-893.5 267,-893.5 261,-893.5 255,-887.5 255,-881.5 255,-881.5 255,-837.5 255,-837.5 255,-831.5 261,-825.5 267,-825.5 267,-825.5 385.75,-825.5 385.75,-825.5 391.75,-825.5 397.75,-831.5 397.75,-837.5 397.75,-837.5 397.75,-881.5 397.75,-881.5 397.75,-887.5 391.75,-893.5 385.75,-893.5"/>
<text text-anchor="middle" x="326.38" y="-876.2" font-family="Helvetica,sans-Serif" font-size="14.00">entropy = 0.0</text>
<text text-anchor="middle" x="326.38" y="-861.2" font-family="Helvetica,sans-Serif" font-size="14.00">samples = 33.3%</text>
<text text-anchor="middle" x="326.38" y="-846.2" font-family="Helvetica,sans-Serif" font-size="14.00">value = [1.0, 0.0, 0.0]</text>
<text text-anchor="middle" x="326.38" y="-831.2" font-family="Helvetica,sans-Serif" font-size="14.00">class = setosa</text>
</g>
<!-- 0&#45;&gt;1 -->
<g id="edge1" class="edge">
<title>0&#45;&gt;1</title>
<path fill="none" stroke="black" d="M378.39,-936.58C371.01,-925.77 363.02,-914.09 355.57,-903.19"/>
<polygon fill="black" stroke="black" points="358.57,-901.39 350.04,-895.11 352.8,-905.34 358.57,-901.39"/>
<text text-anchor="middle" x="344.57" y="-912.63" font-family="Helvetica,sans-Serif" font-size="14.00">True</text>
</g>
<!-- 2 -->
<g id="node3" class="node">
<title>2</title>
<path fill="#ffffff" stroke="black" d="M546.75,-901C546.75,-901 428,-901 428,-901 422,-901 416,-895 416,-889 416,-889 416,-830 416,-830 416,-824 422,-818 428,-818 428,-818 546.75,-818 546.75,-818 552.75,-818 558.75,-824 558.75,-830 558.75,-830 558.75,-889 558.75,-889 558.75,-895 552.75,-901 546.75,-901"/>
<text text-anchor="middle" x="487.38" y="-883.7" font-family="Helvetica,sans-Serif" font-size="14.00">petal_length &lt;= 4.75</text>
<text text-anchor="middle" x="487.38" y="-868.7" font-family="Helvetica,sans-Serif" font-size="14.00">entropy = 1.0</text>
<text text-anchor="middle" x="487.38" y="-853.7" font-family="Helvetica,sans-Serif" font-size="14.00">samples = 66.7%</text>
<text text-anchor="middle" x="487.38" y="-838.7" font-family="Helvetica,sans-Serif" font-size="14.00">value = [0.0, 0.5, 0.5]</text>
<text text-anchor="middle" x="487.38" y="-823.7" font-family="Helvetica,sans-Serif" font-size="14.00">class = versicolor</text>
</g>
<!-- 0&#45;&gt;2 -->
<g id="edge2" class="edge">
<title>0&#45;&gt;2</title>
<path fill="none" stroke="black" d="M434.7,-936.58C440.53,-928.16 446.73,-919.2 452.76,-910.5"/>
<polygon fill="black" stroke="black" points="455.52,-912.66 458.34,-902.44 449.77,-908.67 455.52,-912.66"/>
<text text-anchor="middle" x="463.67" y="-920" font-family="Helvetica,sans-Serif" font-size="14.00">False</text>
</g>
<!-- 3 -->
<g id="node4" class="node">
<title>3</title>
<path fill="#39e581" stroke="black" d="M458.75,-774.5C458.75,-774.5 340,-774.5 340,-774.5 334,-774.5 328,-768.5 328,-762.5 328,-762.5 328,-718.5 328,-718.5 328,-712.5 334,-706.5 340,-706.5 340,-706.5 458.75,-706.5 458.75,-706.5 464.75,-706.5 470.75,-712.5 470.75,-718.5 470.75,-718.5 470.75,-762.5 470.75,-762.5 470.75,-768.5 464.75,-774.5 458.75,-774.5"/>
<text text-anchor="middle" x="399.38" y="-757.2" font-family="Helvetica,sans-Serif" font-size="14.00">entropy = 0.0</text>
<text text-anchor="middle" x="399.38" y="-742.2" font-family="Helvetica,sans-Serif" font-size="14.00">samples = 28.6%</text>
<text text-anchor="middle" x="399.38" y="-727.2" font-family="Helvetica,sans-Serif" font-size="14.00">value = [0.0, 1.0, 0.0]</text>
<text text-anchor="middle" x="399.38" y="-712.2" font-family="Helvetica,sans-Serif" font-size="14.00">class = versicolor</text>
</g>
<!-- 2&#45;&gt;3 -->
<g id="edge3" class="edge">
<title>2&#45;&gt;3</title>
<path fill="none" stroke="black" d="M456.6,-817.58C448.39,-806.66 439.5,-794.85 431.24,-783.86"/>
<polygon fill="black" stroke="black" points="434.19,-781.96 425.38,-776.07 428.59,-786.17 434.19,-781.96"/>
</g>
<!-- 4 -->
<g id="node5" class="node">
<title>4</title>
<path fill="#9355e9" stroke="black" d="M649.75,-782C649.75,-782 501,-782 501,-782 495,-782 489,-776 489,-770 489,-770 489,-711 489,-711 489,-705 495,-699 501,-699 501,-699 649.75,-699 649.75,-699 655.75,-699 661.75,-705 661.75,-711 661.75,-711 661.75,-770 661.75,-770 661.75,-776 655.75,-782 649.75,-782"/>
<text text-anchor="middle" x="575.38" y="-764.7" font-family="Helvetica,sans-Serif" font-size="14.00">petal_length &lt;= 5.15</text>
<text text-anchor="middle" x="575.38" y="-749.7" font-family="Helvetica,sans-Serif" font-size="14.00">entropy = 0.544</text>
<text text-anchor="middle" x="575.38" y="-734.7" font-family="Helvetica,sans-Serif" font-size="14.00">samples = 38.1%</text>
<text text-anchor="middle" x="575.38" y="-719.7" font-family="Helvetica,sans-Serif" font-size="14.00">value = [0.0, 0.125, 0.875]</text>
<text text-anchor="middle" x="575.38" y="-704.7" font-family="Helvetica,sans-Serif" font-size="14.00">class = virginica</text>
</g>
<!-- 2&#45;&gt;4 -->
<g id="edge4" class="edge">
<title>2&#45;&gt;4</title>
<path fill="none" stroke="black" d="M518.15,-817.58C524.55,-809.07 531.37,-800.01 537.97,-791.23"/>
<polygon fill="black" stroke="black" points="540.64,-793.51 543.85,-783.41 535.04,-789.3 540.64,-793.51"/>
</g>
<!-- 5 -->
<g id="node6" class="node">
<title>5</title>
<path fill="#c09cf2" stroke="black" d="M561.75,-663C561.75,-663 413,-663 413,-663 407,-663 401,-657 401,-651 401,-651 401,-592 401,-592 401,-586 407,-580 413,-580 413,-580 561.75,-580 561.75,-580 567.75,-580 573.75,-586 573.75,-592 573.75,-592 573.75,-651 573.75,-651 573.75,-657 567.75,-663 561.75,-663"/>
<text text-anchor="middle" x="487.38" y="-645.7" font-family="Helvetica,sans-Serif" font-size="14.00">petal_width &lt;= 1.85</text>
<text text-anchor="middle" x="487.38" y="-630.7" font-family="Helvetica,sans-Serif" font-size="14.00">entropy = 0.918</text>
<text text-anchor="middle" x="487.38" y="-615.7" font-family="Helvetica,sans-Serif" font-size="14.00">samples = 14.3%</text>
<text text-anchor="middle" x="487.38" y="-600.7" font-family="Helvetica,sans-Serif" font-size="14.00">value = [0.0, 0.333, 0.667]</text>
<text text-anchor="middle" x="487.38" y="-585.7" font-family="Helvetica,sans-Serif" font-size="14.00">class = virginica</text>
</g>
<!-- 4&#45;&gt;5 -->
<g id="edge5" class="edge">
<title>4&#45;&gt;5</title>
<path fill="none" stroke="black" d="M544.6,-698.58C538.2,-690.07 531.38,-681.01 524.78,-672.23"/>
<polygon fill="black" stroke="black" points="527.71,-670.3 518.9,-664.41 522.11,-674.51 527.71,-670.3"/>
</g>
<!-- 16 -->
<g id="node17" class="node">
<title>16</title>
<path fill="#8139e5" stroke="black" d="M722.75,-655.5C722.75,-655.5 604,-655.5 604,-655.5 598,-655.5 592,-649.5 592,-643.5 592,-643.5 592,-599.5 592,-599.5 592,-593.5 598,-587.5 604,-587.5 604,-587.5 722.75,-587.5 722.75,-587.5 728.75,-587.5 734.75,-593.5 734.75,-599.5 734.75,-599.5 734.75,-643.5 734.75,-643.5 734.75,-649.5 728.75,-655.5 722.75,-655.5"/>
<text text-anchor="middle" x="663.38" y="-638.2" font-family="Helvetica,sans-Serif" font-size="14.00">entropy = 0.0</text>
<text text-anchor="middle" x="663.38" y="-623.2" font-family="Helvetica,sans-Serif" font-size="14.00">samples = 23.8%</text>
<text text-anchor="middle" x="663.38" y="-608.2" font-family="Helvetica,sans-Serif" font-size="14.00">value = [0.0, 0.0, 1.0]</text>
<text text-anchor="middle" x="663.38" y="-593.2" font-family="Helvetica,sans-Serif" font-size="14.00">class = virginica</text>
</g>
<!-- 4&#45;&gt;16 -->
<g id="edge16" class="edge">
<title>4&#45;&gt;16</title>
<path fill="none" stroke="black" d="M606.15,-698.58C614.36,-687.66 623.25,-675.85 631.51,-664.86"/>
<polygon fill="black" stroke="black" points="634.16,-667.17 637.37,-657.07 628.56,-662.96 634.16,-667.17"/>
</g>
<!-- 6 -->
<g id="node7" class="node">
<title>6</title>
<path fill="#ffffff" stroke="black" d="M466.75,-544C466.75,-544 348,-544 348,-544 342,-544 336,-538 336,-532 336,-532 336,-473 336,-473 336,-467 342,-461 348,-461 348,-461 466.75,-461 466.75,-461 472.75,-461 478.75,-467 478.75,-473 478.75,-473 478.75,-532 478.75,-532 478.75,-538 472.75,-544 466.75,-544"/>
<text text-anchor="middle" x="407.38" y="-526.7" font-family="Helvetica,sans-Serif" font-size="14.00">sepal_width &lt;= 3.05</text>
<text text-anchor="middle" x="407.38" y="-511.7" font-family="Helvetica,sans-Serif" font-size="14.00">entropy = 1.0</text>
<text text-anchor="middle" x="407.38" y="-496.7" font-family="Helvetica,sans-Serif" font-size="14.00">samples = 9.5%</text>
<text text-anchor="middle" x="407.38" y="-481.7" font-family="Helvetica,sans-Serif" font-size="14.00">value = [0.0, 0.5, 0.5]</text>
<text text-anchor="middle" x="407.38" y="-466.7" font-family="Helvetica,sans-Serif" font-size="14.00">class = versicolor</text>
</g>
<!-- 5&#45;&gt;6 -->
<g id="edge6" class="edge">
<title>5&#45;&gt;6</title>
<path fill="none" stroke="black" d="M459.39,-579.58C453.64,-571.16 447.51,-562.2 441.56,-553.5"/>
<polygon fill="black" stroke="black" points="444.59,-551.73 436.06,-545.45 438.81,-555.68 444.59,-551.73"/>
</g>
<!-- 15 -->
<g id="node16" class="node">
<title>15</title>
<path fill="#8139e5" stroke="black" d="M627.75,-536.5C627.75,-536.5 509,-536.5 509,-536.5 503,-536.5 497,-530.5 497,-524.5 497,-524.5 497,-480.5 497,-480.5 497,-474.5 503,-468.5 509,-468.5 509,-468.5 627.75,-468.5 627.75,-468.5 633.75,-468.5 639.75,-474.5 639.75,-480.5 639.75,-480.5 639.75,-524.5 639.75,-524.5 639.75,-530.5 633.75,-536.5 627.75,-536.5"/>
<text text-anchor="middle" x="568.38" y="-519.2" font-family="Helvetica,sans-Serif" font-size="14.00">entropy = 0.0</text>
<text text-anchor="middle" x="568.38" y="-504.2" font-family="Helvetica,sans-Serif" font-size="14.00">samples = 4.8%</text>
<text text-anchor="middle" x="568.38" y="-489.2" font-family="Helvetica,sans-Serif" font-size="14.00">value = [0.0, 0.0, 1.0]</text>
<text text-anchor="middle" x="568.38" y="-474.2" font-family="Helvetica,sans-Serif" font-size="14.00">class = virginica</text>
</g>
<!-- 5&#45;&gt;15 -->
<g id="edge15" class="edge">
<title>5&#45;&gt;15</title>
<path fill="none" stroke="black" d="M515.7,-579.58C523.19,-568.77 531.28,-557.09 538.82,-546.19"/>
<polygon fill="black" stroke="black" points="541.6,-548.32 544.42,-538.11 535.85,-544.34 541.6,-548.32"/>
</g>
<!-- 7 -->
<g id="node8" class="node">
<title>7</title>
<path fill="#cdb0f5" stroke="black" d="M393.75,-425C393.75,-425 245,-425 245,-425 239,-425 233,-419 233,-413 233,-413 233,-354 233,-354 233,-348 239,-342 245,-342 245,-342 393.75,-342 393.75,-342 399.75,-342 405.75,-348 405.75,-354 405.75,-354 405.75,-413 405.75,-413 405.75,-419 399.75,-425 393.75,-425"/>
<text text-anchor="middle" x="319.38" y="-407.7" font-family="Helvetica,sans-Serif" font-size="14.00">petal_width &lt;= 1.75</text>
<text text-anchor="middle" x="319.38" y="-392.7" font-family="Helvetica,sans-Serif" font-size="14.00">entropy = 0.954</text>
<text text-anchor="middle" x="319.38" y="-377.7" font-family="Helvetica,sans-Serif" font-size="14.00">samples = 7.6%</text>
<text text-anchor="middle" x="319.38" y="-362.7" font-family="Helvetica,sans-Serif" font-size="14.00">value = [0.0, 0.375, 0.625]</text>
<text text-anchor="middle" x="319.38" y="-347.7" font-family="Helvetica,sans-Serif" font-size="14.00">class = virginica</text>
</g>
<!-- 6&#45;&gt;7 -->
<g id="edge7" class="edge">
<title>6&#45;&gt;7</title>
<path fill="none" stroke="black" d="M376.6,-460.58C370.2,-452.07 363.38,-443.01 356.78,-434.23"/>
<polygon fill="black" stroke="black" points="359.71,-432.3 350.9,-426.41 354.11,-436.51 359.71,-432.3"/>
</g>
<!-- 14 -->
<g id="node15" class="node">
<title>14</title>
<path fill="#39e581" stroke="black" d="M554.75,-417.5C554.75,-417.5 436,-417.5 436,-417.5 430,-417.5 424,-411.5 424,-405.5 424,-405.5 424,-361.5 424,-361.5 424,-355.5 430,-349.5 436,-349.5 436,-349.5 554.75,-349.5 554.75,-349.5 560.75,-349.5 566.75,-355.5 566.75,-361.5 566.75,-361.5 566.75,-405.5 566.75,-405.5 566.75,-411.5 560.75,-417.5 554.75,-417.5"/>
<text text-anchor="middle" x="495.38" y="-400.2" font-family="Helvetica,sans-Serif" font-size="14.00">entropy = 0.0</text>
<text text-anchor="middle" x="495.38" y="-385.2" font-family="Helvetica,sans-Serif" font-size="14.00">samples = 1.9%</text>
<text text-anchor="middle" x="495.38" y="-370.2" font-family="Helvetica,sans-Serif" font-size="14.00">value = [0.0, 1.0, 0.0]</text>
<text text-anchor="middle" x="495.38" y="-355.2" font-family="Helvetica,sans-Serif" font-size="14.00">class = versicolor</text>
</g>
<!-- 6&#45;&gt;14 -->
<g id="edge14" class="edge">
<title>6&#45;&gt;14</title>
<path fill="none" stroke="black" d="M438.15,-460.58C446.36,-449.66 455.25,-437.85 463.51,-426.86"/>
<polygon fill="black" stroke="black" points="466.16,-429.17 469.37,-419.07 460.56,-424.96 466.16,-429.17"/>
</g>
<!-- 8 -->
<g id="node9" class="node">
<title>8</title>
<path fill="#bdf6d5" stroke="black" d="M298.75,-306C298.75,-306 180,-306 180,-306 174,-306 168,-300 168,-294 168,-294 168,-235 168,-235 168,-229 174,-223 180,-223 180,-223 298.75,-223 298.75,-223 304.75,-223 310.75,-229 310.75,-235 310.75,-235 310.75,-294 310.75,-294 310.75,-300 304.75,-306 298.75,-306"/>
<text text-anchor="middle" x="239.38" y="-288.7" font-family="Helvetica,sans-Serif" font-size="14.00">petal_width &lt;= 1.55</text>
<text text-anchor="middle" x="239.38" y="-273.7" font-family="Helvetica,sans-Serif" font-size="14.00">entropy = 0.971</text>
<text text-anchor="middle" x="239.38" y="-258.7" font-family="Helvetica,sans-Serif" font-size="14.00">samples = 4.8%</text>
<text text-anchor="middle" x="239.38" y="-243.7" font-family="Helvetica,sans-Serif" font-size="14.00">value = [0.0, 0.6, 0.4]</text>
<text text-anchor="middle" x="239.38" y="-228.7" font-family="Helvetica,sans-Serif" font-size="14.00">class = versicolor</text>
</g>
<!-- 7&#45;&gt;8 -->
<g id="edge8" class="edge">
<title>7&#45;&gt;8</title>
<path fill="none" stroke="black" d="M291.39,-341.58C285.64,-333.16 279.51,-324.2 273.56,-315.5"/>
<polygon fill="black" stroke="black" points="276.59,-313.73 268.06,-307.45 270.81,-317.68 276.59,-313.73"/>
</g>
<!-- 13 -->
<g id="node14" class="node">
<title>13</title>
<path fill="#8139e5" stroke="black" d="M459.75,-298.5C459.75,-298.5 341,-298.5 341,-298.5 335,-298.5 329,-292.5 329,-286.5 329,-286.5 329,-242.5 329,-242.5 329,-236.5 335,-230.5 341,-230.5 341,-230.5 459.75,-230.5 459.75,-230.5 465.75,-230.5 471.75,-236.5 471.75,-242.5 471.75,-242.5 471.75,-286.5 471.75,-286.5 471.75,-292.5 465.75,-298.5 459.75,-298.5"/>
<text text-anchor="middle" x="400.38" y="-281.2" font-family="Helvetica,sans-Serif" font-size="14.00">entropy = 0.0</text>
<text text-anchor="middle" x="400.38" y="-266.2" font-family="Helvetica,sans-Serif" font-size="14.00">samples = 2.9%</text>
<text text-anchor="middle" x="400.38" y="-251.2" font-family="Helvetica,sans-Serif" font-size="14.00">value = [0.0, 0.0, 1.0]</text>
<text text-anchor="middle" x="400.38" y="-236.2" font-family="Helvetica,sans-Serif" font-size="14.00">class = virginica</text>
</g>
<!-- 7&#45;&gt;13 -->
<g id="edge13" class="edge">
<title>7&#45;&gt;13</title>
<path fill="none" stroke="black" d="M347.7,-341.58C355.19,-330.77 363.28,-319.09 370.82,-308.19"/>
<polygon fill="black" stroke="black" points="373.6,-310.32 376.42,-300.11 367.85,-306.34 373.6,-310.32"/>
</g>
<!-- 9 -->
<g id="node10" class="node">
<title>9</title>
<path fill="#c09cf2" stroke="black" d="M225.75,-187C225.75,-187 77,-187 77,-187 71,-187 65,-181 65,-175 65,-175 65,-116 65,-116 65,-110 71,-104 77,-104 77,-104 225.75,-104 225.75,-104 231.75,-104 237.75,-110 237.75,-116 237.75,-116 237.75,-175 237.75,-175 237.75,-181 231.75,-187 225.75,-187"/>
<text text-anchor="middle" x="151.38" y="-169.7" font-family="Helvetica,sans-Serif" font-size="14.00">petal_length &lt;= 4.95</text>
<text text-anchor="middle" x="151.38" y="-154.7" font-family="Helvetica,sans-Serif" font-size="14.00">entropy = 0.918</text>
<text text-anchor="middle" x="151.38" y="-139.7" font-family="Helvetica,sans-Serif" font-size="14.00">samples = 2.9%</text>
<text text-anchor="middle" x="151.38" y="-124.7" font-family="Helvetica,sans-Serif" font-size="14.00">value = [0.0, 0.333, 0.667]</text>
<text text-anchor="middle" x="151.38" y="-109.7" font-family="Helvetica,sans-Serif" font-size="14.00">class = virginica</text>
</g>
<!-- 8&#45;&gt;9 -->
<g id="edge9" class="edge">
<title>8&#45;&gt;9</title>
<path fill="none" stroke="black" d="M208.6,-222.58C202.2,-214.07 195.38,-205.01 188.78,-196.23"/>
<polygon fill="black" stroke="black" points="191.71,-194.3 182.9,-188.41 186.11,-198.51 191.71,-194.3"/>
</g>
<!-- 12 -->
<g id="node13" class="node">
<title>12</title>
<path fill="#39e581" stroke="black" d="M386.75,-179.5C386.75,-179.5 268,-179.5 268,-179.5 262,-179.5 256,-173.5 256,-167.5 256,-167.5 256,-123.5 256,-123.5 256,-117.5 262,-111.5 268,-111.5 268,-111.5 386.75,-111.5 386.75,-111.5 392.75,-111.5 398.75,-117.5 398.75,-123.5 398.75,-123.5 398.75,-167.5 398.75,-167.5 398.75,-173.5 392.75,-179.5 386.75,-179.5"/>
<text text-anchor="middle" x="327.38" y="-162.2" font-family="Helvetica,sans-Serif" font-size="14.00">entropy = 0.0</text>
<text text-anchor="middle" x="327.38" y="-147.2" font-family="Helvetica,sans-Serif" font-size="14.00">samples = 1.9%</text>
<text text-anchor="middle" x="327.38" y="-132.2" font-family="Helvetica,sans-Serif" font-size="14.00">value = [0.0, 1.0, 0.0]</text>
<text text-anchor="middle" x="327.38" y="-117.2" font-family="Helvetica,sans-Serif" font-size="14.00">class = versicolor</text>
</g>
<!-- 8&#45;&gt;12 -->
<g id="edge12" class="edge">
<title>8&#45;&gt;12</title>
<path fill="none" stroke="black" d="M270.15,-222.58C278.36,-211.66 287.25,-199.85 295.51,-188.86"/>
<polygon fill="black" stroke="black" points="298.16,-191.17 301.37,-181.07 292.56,-186.96 298.16,-191.17"/>
</g>
<!-- 10 -->
<g id="node11" class="node">
<title>10</title>
<path fill="#39e581" stroke="black" d="M130.75,-68C130.75,-68 12,-68 12,-68 6,-68 0,-62 0,-56 0,-56 0,-12 0,-12 0,-6 6,0 12,0 12,0 130.75,0 130.75,0 136.75,0 142.75,-6 142.75,-12 142.75,-12 142.75,-56 142.75,-56 142.75,-62 136.75,-68 130.75,-68"/>
<text text-anchor="middle" x="71.38" y="-50.7" font-family="Helvetica,sans-Serif" font-size="14.00">entropy = 0.0</text>
<text text-anchor="middle" x="71.38" y="-35.7" font-family="Helvetica,sans-Serif" font-size="14.00">samples = 1.0%</text>
<text text-anchor="middle" x="71.38" y="-20.7" font-family="Helvetica,sans-Serif" font-size="14.00">value = [0.0, 1.0, 0.0]</text>
<text text-anchor="middle" x="71.38" y="-5.7" font-family="Helvetica,sans-Serif" font-size="14.00">class = versicolor</text>
</g>
<!-- 9&#45;&gt;10 -->
<g id="edge10" class="edge">
<title>9&#45;&gt;10</title>
<path fill="none" stroke="black" d="M121.59,-103.73C115.32,-95.15 108.7,-86.09 102.39,-77.46"/>
<polygon fill="black" stroke="black" points="105.32,-75.53 96.6,-69.52 99.67,-79.66 105.32,-75.53"/>
</g>
<!-- 11 -->
<g id="node12" class="node">
<title>11</title>
<path fill="#8139e5" stroke="black" d="M291.75,-68C291.75,-68 173,-68 173,-68 167,-68 161,-62 161,-56 161,-56 161,-12 161,-12 161,-6 167,0 173,0 173,0 291.75,0 291.75,0 297.75,0 303.75,-6 303.75,-12 303.75,-12 303.75,-56 303.75,-56 303.75,-62 297.75,-68 291.75,-68"/>
<text text-anchor="middle" x="232.38" y="-50.7" font-family="Helvetica,sans-Serif" font-size="14.00">entropy = 0.0</text>
<text text-anchor="middle" x="232.38" y="-35.7" font-family="Helvetica,sans-Serif" font-size="14.00">samples = 1.9%</text>
<text text-anchor="middle" x="232.38" y="-20.7" font-family="Helvetica,sans-Serif" font-size="14.00">value = [0.0, 0.0, 1.0]</text>
<text text-anchor="middle" x="232.38" y="-5.7" font-family="Helvetica,sans-Serif" font-size="14.00">class = virginica</text>
</g>
<!-- 9&#45;&gt;11 -->
<g id="edge11" class="edge">
<title>9&#45;&gt;11</title>
<path fill="none" stroke="black" d="M181.54,-103.73C187.88,-95.15 194.58,-86.09 200.97,-77.46"/>
<polygon fill="black" stroke="black" points="203.71,-79.64 206.84,-69.52 198.08,-75.47 203.71,-79.64"/>
</g>
</g>
</svg>