<?xml version="1.0" encoding="UTF-8" standalone="no"?>
<!DOCTYPE svg PUBLIC "-//W3C//DTD SVG 1.1//EN"
 "http://www.w3.org/Graphics/SVG/1.1/DTD/svg11.dtd">
<!-- Generated by graphviz version 8.0.4 (20230421.1958)
 -->
<!-- Title: Tree Pages: 1 -->
<svg width="1310pt" height="433pt"
 viewBox="0.00 0.00 1309.50 433.00" xmlns="http://www.w3.org/2000/svg" xmlns:xlink="http://www.w3.org/1999/xlink">
<g id="graph0" class="graph" transform="scale(1 1) rotate(0) translate(4 429)">
<title>Tree</title>
<polygon fill="white" stroke="none" points="-4,4 -4,-429 1305.5,-429 1305.5,4 -4,4"/>
<!-- 0 -->
<g id="node1" class="node">
<title>0</title>
<path fill="#eda978" stroke="black" d="M754.88,-425C754.88,-425 511.62,-425 511.62,-425 505.62,-425 499.62,-419 499.62,-413 499.62,-413 499.62,-354 499.62,-354 499.62,-348 505.62,-342 511.62,-342 511.62,-342 754.88,-342 754.88,-342 760.88,-342 766.88,-348 766.88,-354 766.88,-354 766.88,-413 766.88,-413 766.88,-419 760.88,-425 754.88,-425"/>
<text text-anchor="middle" x="633.25" y="-407.7" font-family="Helvetica,sans-Serif" font-size="14.00">marital&#45;status_ Married&#45;civ&#45;spouse &lt;= 0.5</text>
<text text-anchor="middle" x="633.25" y="-392.7" font-family="Helvetica,sans-Serif" font-size="14.00">entropy = 0.796</text>
<text text-anchor="middle" x="633.25" y="-377.7" font-family="Helvetica,sans-Serif" font-size="14.00">samples = 100.0%</text>
<text text-anchor="middle" x="633.25" y="-362.7" font-family="Helvetica,sans-Serif" font-size="14.00">value = [0.759, 0.241]</text>
<text text-anchor="middle" x="633.25" y="-347.7" font-family="Helvetica,sans-Serif" font-size="14.00">class = &lt;=50K</text>
</g>
<!-- 1 -->
<g id="node2" class="node">
<title>1</title>
<path fill="#e78a47" stroke="black" d="M536.25,-306C536.25,-306 400.25,-306 400.25,-306 394.25,-306 388.25,-300 388.25,-294 388.25,-294 388.25,-235 388.25,-235 388.25,-229 394.25,-223 400.25,-223 400.25,-223 536.25,-223 536.25,-223 542.25,-223 548.25,-229 548.25,-235 548.25,-235 548.25,-294 548.25,-294 548.25,-300 542.25,-306 536.25,-306"/>
<text text-anchor="middle" x="468.25" y="-288.7" font-family="Helvetica,sans-Serif" font-size="14.00">hours&#45;per&#45;week &lt;= 42.5</text>
<text text-anchor="middle" x="468.25" y="-273.7" font-family="Helvetica,sans-Serif" font-size="14.00">entropy = 0.353</text>
<text text-anchor="middle" x="468.25" y="-258.7" font-family="Helvetica,sans-Serif" font-size="14.00">samples = 54.2%</text>
<text text-anchor="middle" x="468.25" y="-243.7" font-family="Helvetica,sans-Serif" font-size="14.00">value = [0.933, 0.067]</text>
<text text-anchor="middle" x="468.25" y="-228.7" font-family="Helvetica,sans-Serif" font-size="14.00">class = &lt;=50K</text>
</g>
<!-- 0&#45;&gt;1 -->
<g id="edge1" class="edge">
<title>0&#45;&gt;1</title>
<path fill="none" stroke="black" d="M575.54,-341.58C562.35,-332.23 548.23,-322.21 534.71,-312.63"/>
<polygon fill="black" stroke="black" points="537.11,-309.33 526.93,-306.4 533.06,-315.04 537.11,-309.33"/>
<text text-anchor="middle" x="530.12" y="-325.24" font-family="Helvetica,sans-Serif" font-size="14.00">True</text>
</g>
<!-- 8 -->
<g id="node9" class="node">
<title>8</title>
<path fill="#fae7d9" stroke="black" d="M857.5,-306C857.5,-306 693,-306 693,-306 687,-306 681,-300 681,-294 681,-294 681,-235 681,-235 681,-229 687,-223 693,-223 693,-223 857.5,-223 857.5,-223 863.5,-223 869.5,-229 869.5,-235 869.5,-235 869.5,-294 869.5,-294 869.5,-300 863.5,-306 857.5,-306"/>
<text text-anchor="middle" x="775.25" y="-288.7" font-family="Helvetica,sans-Serif" font-size="14.00">education_ Bachelors &lt;= 0.5</text>
<text text-anchor="middle" x="775.25" y="-273.7" font-family="Helvetica,sans-Serif" font-size="14.00">entropy = 0.992</text>
<text text-anchor="middle" x="775.25" y="-258.7" font-family="Helvetica,sans-Serif" font-size="14.00">samples = 45.8%</text>
<text text-anchor="middle" x="775.25" y="-243.7" font-family="Helvetica,sans-Serif" font-size="14.00">value = [0.553, 0.447]</text>
<text text-anchor="middle" x="775.25" y="-228.7" font-family="Helvetica,sans-Serif" font-size="14.00">class = &lt;=50K</text>
</g>
<!-- 0&#45;&gt;8 -->
<g id="edge8" class="edge">
<title>0&#45;&gt;8</title>
<path fill="none" stroke="black" d="M682.91,-341.58C694.11,-332.35 706.09,-322.48 717.59,-313.01"/>
<polygon fill="black" stroke="black" points="719.36,-315.26 724.85,-306.2 714.91,-309.86 719.36,-315.26"/>
<text text-anchor="middle" x="723.45" y="-325.28" font-family="Helvetica,sans-Serif" font-size="14.00">False</text>
</g>
<!-- 2 -->
<g id="node3" class="node">
<title>2</title>
<path fill="#e68641" stroke="black" d="M299.5,-187C299.5,-187 177,-187 177,-187 171,-187 165,-181 165,-175 165,-175 165,-116 165,-116 165,-110 171,-104 177,-104 177,-104 299.5,-104 299.5,-104 305.5,-104 311.5,-110 311.5,-116 311.5,-116 311.5,-175 311.5,-175 311.5,-181 305.5,-187 299.5,-187"/>
<text text-anchor="middle" x="238.25" y="-169.7" font-family="Helvetica,sans-Serif" font-size="14.00">age &lt;= 28.5</text>
<text text-anchor="middle" x="238.25" y="-154.7" font-family="Helvetica,sans-Serif" font-size="14.00">entropy = 0.229</text>
<text text-anchor="middle" x="238.25" y="-139.7" font-family="Helvetica,sans-Serif" font-size="14.00">samples = 42.7%</text>
<text text-anchor="middle" x="238.25" y="-124.7" font-family="Helvetica,sans-Serif" font-size="14.00">value = [0.963, 0.037]</text>
<text text-anchor="middle" x="238.25" y="-109.7" font-family="Helvetica,sans-Serif" font-size="14.00">class = &lt;=50K</text>
</g>
<!-- 1&#45;&gt;2 -->
<g id="edge2" class="edge">
<title>1&#45;&gt;2</title>
<path fill="none" stroke="black" d="M387.81,-222.58C366.35,-211.66 343.13,-199.85 321.52,-188.86"/>
<polygon fill="black" stroke="black" points="323.22,-185.29 312.72,-183.87 320.05,-191.53 323.22,-185.29"/>
</g>
<!-- 5 -->
<g id="node6" class="node">
<title>5</title>
<path fill="#eb9c63" stroke="black" d="M529.5,-187C529.5,-187 407,-187 407,-187 401,-187 395,-181 395,-175 395,-175 395,-116 395,-116 395,-110 401,-104 407,-104 407,-104 529.5,-104 529.5,-104 535.5,-104 541.5,-110 541.5,-116 541.5,-116 541.5,-175 541.5,-175 541.5,-181 535.5,-187 529.5,-187"/>
<text text-anchor="middle" x="468.25" y="-169.7" font-family="Helvetica,sans-Serif" font-size="14.00">age &lt;= 27.5</text>
<text text-anchor="middle" x="468.25" y="-154.7" font-family="Helvetica,sans-Serif" font-size="14.00">entropy = 0.671</text>
<text text-anchor="middle" x="468.25" y="-139.7" font-family="Helvetica,sans-Serif" font-size="14.00">samples = 11.5%</text>
<text text-anchor="middle" x="468.25" y="-124.7" font-family="Helvetica,sans-Serif" font-size="14.00">value = [0.824, 0.176]</text>
<text text-anchor="middle" x="468.25" y="-109.7" font-family="Helvetica,sans-Serif" font-size="14.00">class = &lt;=50K</text>
</g>
<!-- 1&#45;&gt;5 -->
<g id="edge5" class="edge">
<title>1&#45;&gt;5</title>
<path fill="none" stroke="black" d="M468.25,-222.58C468.25,-214.7 468.25,-206.34 468.25,-198.17"/>
<polygon fill="black" stroke="black" points="471.75,-198.2 468.25,-188.2 464.75,-198.2 471.75,-198.2"/>
</g>
<!-- 3 -->
<g id="node4" class="node">
<title>3</title>
<path fill="#e5823a" stroke="black" d="M134.5,-68C134.5,-68 12,-68 12,-68 6,-68 0,-62 0,-56 0,-56 0,-12 0,-12 0,-6 6,0 12,0 12,0 134.5,0 134.5,0 140.5,0 146.5,-6 146.5,-12 146.5,-12 146.5,-56 146.5,-56 146.5,-62 140.5,-68 134.5,-68"/>
<text text-anchor="middle" x="73.25" y="-50.7" font-family="Helvetica,sans-Serif" font-size="14.00">entropy = 0.062</text>
<text text-anchor="middle" x="73.25" y="-35.7" font-family="Helvetica,sans-Serif" font-size="14.00">samples = 19.5%</text>
<text text-anchor="middle" x="73.25" y="-20.7" font-family="Helvetica,sans-Serif" font-size="14.00">value = [0.993, 0.007]</text>
<text text-anchor="middle" x="73.25" y="-5.7" font-family="Helvetica,sans-Serif" font-size="14.00">class = &lt;=50K</text>
</g>
<!-- 2&#45;&gt;3 -->
<g id="edge3" class="edge">
<title>2&#45;&gt;3</title>
<path fill="none" stroke="black" d="M176.81,-103.73C162.32,-94.11 146.9,-83.87 132.5,-74.32"/>
<polygon fill="black" stroke="black" points="134.96,-71.09 124.69,-68.47 131.09,-76.92 134.96,-71.09"/>
</g>
<!-- 4 -->
<g id="node5" class="node">
<title>4</title>
<path fill="#e78946" stroke="black" d="M299.5,-68C299.5,-68 177,-68 177,-68 171,-68 165,-62 165,-56 165,-56 165,-12 165,-12 165,-6 171,0 177,0 177,0 299.5,0 299.5,0 305.5,0 311.5,-6 311.5,-12 311.5,-12 311.5,-56 311.5,-56 311.5,-62 305.5,-68 299.5,-68"/>
<text text-anchor="middle" x="238.25" y="-50.7" font-family="Helvetica,sans-Serif" font-size="14.00">entropy = 0.336</text>
<text text-anchor="middle" x="238.25" y="-35.7" font-family="Helvetica,sans-Serif" font-size="14.00">samples = 23.2%</text>
<text text-anchor="middle" x="238.25" y="-20.7" font-family="Helvetica,sans-Serif" font-size="14.00">value = [0.938, 0.062]</text>
<text text-anchor="middle" x="238.25" y="-5.7" font-family="Helvetica,sans-Serif" font-size="14.00">class = &lt;=50K</text>
</g>
<!-- 2&#45;&gt;4 -->
<g id="edge4" class="edge">
<title>2&#45;&gt;4</title>
<path fill="none" stroke="black" d="M238.25,-103.73C238.25,-95.7 238.25,-87.24 238.25,-79.11"/>
<polygon fill="black" stroke="black" points="241.75,-79.3 238.25,-69.3 234.75,-79.3 241.75,-79.3"/>
</g>
<!-- 6 -->
<g id="node7" class="node">
<title>6</title>
<path fill="#e68540" stroke="black" d="M464.5,-68C464.5,-68 342,-68 342,-68 336,-68 330,-62 330,-56 330,-56 330,-12 330,-12 330,-6 336,0 342,0 342,0 464.5,0 464.5,0 470.5,0 476.5,-6 476.5,-12 476.5,-12 476.5,-56 476.5,-56 476.5,-62 470.5,-68 464.5,-68"/>
<text text-anchor="middle" x="403.25" y="-50.7" font-family="Helvetica,sans-Serif" font-size="14.00">entropy = 0.209</text>
<text text-anchor="middle" x="403.25" y="-35.7" font-family="Helvetica,sans-Serif" font-size="14.00">samples = 2.8%</text>
<text text-anchor="middle" x="403.25" y="-20.7" font-family="Helvetica,sans-Serif" font-size="14.00">value = [0.967, 0.033]</text>
<text text-anchor="middle" x="403.25" y="-5.7" font-family="Helvetica,sans-Serif" font-size="14.00">class = &lt;=50K</text>
</g>
<!-- 5&#45;&gt;6 -->
<g id="edge6" class="edge">
<title>5&#45;&gt;6</title>
<path fill="none" stroke="black" d="M444.05,-103.73C439.01,-95.24 433.69,-86.28 428.62,-77.73"/>
<polygon fill="black" stroke="black" points="431.13,-76.11 423.02,-69.3 425.11,-79.69 431.13,-76.11"/>
</g>
<!-- 7 -->
<g id="node8" class="node">
<title>7</title>
<path fill="#eca572" stroke="black" d="M629.5,-68C629.5,-68 507,-68 507,-68 501,-68 495,-62 495,-56 495,-56 495,-12 495,-12 495,-6 501,0 507,0 507,0 629.5,0 629.5,0 635.5,0 641.5,-6 641.5,-12 641.5,-12 641.5,-56 641.5,-56 641.5,-62 635.5,-68 629.5,-68"/>
<text text-anchor="middle" x="568.25" y="-50.7" font-family="Helvetica,sans-Serif" font-size="14.00">entropy = 0.764</text>
<text text-anchor="middle" x="568.25" y="-35.7" font-family="Helvetica,sans-Serif" font-size="14.00">samples = 8.7%</text>
<text text-anchor="middle" x="568.25" y="-20.7" font-family="Helvetica,sans-Serif" font-size="14.00">value = [0.778, 0.222]</text>
<text text-anchor="middle" x="568.25" y="-5.7" font-family="Helvetica,sans-Serif" font-size="14.00">class = &lt;=50K</text>
</g>
<!-- 5&#45;&gt;7 -->
<g id="edge7" class="edge">
<title>5&#45;&gt;7</title>
<path fill="none" stroke="black" d="M505.49,-103.73C513.65,-94.79 522.3,-85.32 530.48,-76.36"/>
<polygon fill="black" stroke="black" points="532.68,-79.04 536.84,-69.3 527.51,-74.32 532.68,-79.04"/>
</g>
<!-- 9 -->
<g id="node10" class="node">
<title>9</title>
<path fill="#f6d3bb" stroke="black" d="M871.75,-187C871.75,-187 678.75,-187 678.75,-187 672.75,-187 666.75,-181 666.75,-175 666.75,-175 666.75,-116 666.75,-116 666.75,-110 672.75,-104 678.75,-104 678.75,-104 871.75,-104 871.75,-104 877.75,-104 883.75,-110 883.75,-116 883.75,-116 883.75,-175 883.75,-175 883.75,-181 877.75,-187 871.75,-187"/>
<text text-anchor="middle" x="775.25" y="-169.7" font-family="Helvetica,sans-Serif" font-size="14.00">occupation_ Prof&#45;specialty &lt;= 0.5</text>
<text text-anchor="middle" x="775.25" y="-154.7" font-family="Helvetica,sans-Serif" font-size="14.00">entropy = 0.968</text>
<text text-anchor="middle" x="775.25" y="-139.7" font-family="Helvetica,sans-Serif" font-size="14.00">samples = 37.4%</text>
<text text-anchor="middle" x="775.25" y="-124.7" font-family="Helvetica,sans-Serif" font-size="14.00">value = [0.604, 0.396]</text>
<text text-anchor="middle" x="775.25" y="-109.7" font-family="Helvetica,sans-Serif" font-size="14.00">class = &lt;=50K</text>
</g>
<!-- 8&#45;&gt;9 -->
<g id="edge9" class="edge">
<title>8&#45;&gt;9</title>
<path fill="none" stroke="black" d="M775.25,-222.58C775.25,-214.7 775.25,-206.34 775.25,-198.17"/>
<polygon fill="black" stroke="black" points="778.75,-198.2 775.25,-188.2 771.75,-198.2 778.75,-198.2"/>
</g>
<!-- 12 -->
<g id="node13" class="node">
<title>12</title>
<path fill="#99cdf2" stroke="black" d="M1169.88,-187C1169.88,-187 956.62,-187 956.62,-187 950.62,-187 944.62,-181 944.62,-175 944.62,-175 944.62,-116 944.62,-116 944.62,-110 950.62,-104 956.62,-104 956.62,-104 1169.88,-104 1169.88,-104 1175.88,-104 1181.88,-110 1181.88,-116 1181.88,-116 1181.88,-175 1181.88,-175 1181.88,-181 1175.88,-187 1169.88,-187"/>
<text text-anchor="middle" x="1063.25" y="-169.7" font-family="Helvetica,sans-Serif" font-size="14.00">occupation_ Exec&#45;managerial &lt;= 0.5</text>
<text text-anchor="middle" x="1063.25" y="-154.7" font-family="Helvetica,sans-Serif" font-size="14.00">entropy = 0.912</text>
<text text-anchor="middle" x="1063.25" y="-139.7" font-family="Helvetica,sans-Serif" font-size="14.00">samples = 8.5%</text>
<text text-anchor="middle" x="1063.25" y="-124.7" font-family="Helvetica,sans-Serif" font-size="14.00">value = [0.327, 0.673]</text>
<text text-anchor="middle" x="1063.25" y="-109.7" font-family="Helvetica,sans-Serif" font-size="14.00">class = &gt;50K</text>
</g>
<!-- 8&#45;&gt;12 -->
<g id="edge12" class="edge">
<title>8&#45;&gt;12</title>
<path fill="none" stroke="black" d="M869.95,-225.03C896.38,-214.29 925.33,-202.53 952.59,-191.46"/>
<polygon fill="black" stroke="black" points="953.6,-194.42 961.55,-187.41 950.97,-187.93 953.6,-194.42"/>
</g>
<!-- 10 -->
<g id="node11" class="node">
<title>10</title>
<path fill="#f3c6a5" stroke="black" d="M794.5,-68C794.5,-68 672,-68 672,-68 666,-68 660,-62 660,-56 660,-56 660,-12 660,-12 660,-6 666,0 672,0 672,0 794.5,0 794.5,0 800.5,0 806.5,-6 806.5,-12 806.5,-12 806.5,-56 806.5,-56 806.5,-62 800.5,-68 794.5,-68"/>
<text text-anchor="middle" x="733.25" y="-50.7" font-family="Helvetica,sans-Serif" font-size="14.00">entropy = 0.937</text>
<text text-anchor="middle" x="733.25" y="-35.7" font-family="Helvetica,sans-Serif" font-size="14.00">samples = 33.1%</text>
<text text-anchor="middle" x="733.25" y="-20.7" font-family="Helvetica,sans-Serif" font-size="14.00">value = [0.647, 0.353]</text>
<text text-anchor="middle" x="733.25" y="-5.7" font-family="Helvetica,sans-Serif" font-size="14.00">class = &lt;=50K</text>
</g>
<!-- 9&#45;&gt;10 -->
<g id="edge10" class="edge">
<title>9&#45;&gt;10</title>
<path fill="none" stroke="black" d="M759.61,-103.73C756.46,-95.52 753.14,-86.86 749.96,-78.56"/>
<polygon fill="black" stroke="black" points="752.87,-77.38 746.02,-69.3 746.34,-79.89 752.87,-77.38"/>
</g>
<!-- 11 -->
<g id="node12" class="node">
<title>11</title>
<path fill="#84c2ef" stroke="black" d="M959.5,-68C959.5,-68 837,-68 837,-68 831,-68 825,-62 825,-56 825,-56 825,-12 825,-12 825,-6 831,0 837,0 837,0 959.5,0 959.5,0 965.5,0 971.5,-6 971.5,-12 971.5,-12 971.5,-56 971.5,-56 971.5,-62 965.5,-68 959.5,-68"/>
<text text-anchor="middle" x="898.25" y="-50.7" font-family="Helvetica,sans-Serif" font-size="14.00">entropy = 0.847</text>
<text text-anchor="middle" x="898.25" y="-35.7" font-family="Helvetica,sans-Serif" font-size="14.00">samples = 4.3%</text>
<text text-anchor="middle" x="898.25" y="-20.7" font-family="Helvetica,sans-Serif" font-size="14.00">value = [0.274, 0.726]</text>
<text text-anchor="middle" x="898.25" y="-5.7" font-family="Helvetica,sans-Serif" font-size="14.00">class = &gt;50K</text>
</g>
<!-- 9&#45;&gt;11 -->
<g id="edge11" class="edge">
<title>9&#45;&gt;11</title>
<path fill="none" stroke="black" d="M821.05,-103.73C831.4,-94.51 842.38,-84.74 852.72,-75.53"/>
<polygon fill="black" stroke="black" points="854.7,-78.56 859.84,-69.3 850.05,-73.33 854.7,-78.56"/>
</g>
<!-- 13 -->
<g id="node14" class="node">
<title>13</title>
<path fill="#b1d8f5" stroke="black" d="M1124.5,-68C1124.5,-68 1002,-68 1002,-68 996,-68 990,-62 990,-56 990,-56 990,-12 990,-12 990,-6 996,0 1002,0 1002,0 1124.5,0 1124.5,0 1130.5,0 1136.5,-6 1136.5,-12 1136.5,-12 1136.5,-56 1136.5,-56 1136.5,-62 1130.5,-68 1124.5,-68"/>
<text text-anchor="middle" x="1063.25" y="-50.7" font-family="Helvetica,sans-Serif" font-size="14.00">entropy = 0.956</text>
<text text-anchor="middle" x="1063.25" y="-35.7" font-family="Helvetica,sans-Serif" font-size="14.00">samples = 5.8%</text>
<text text-anchor="middle" x="1063.25" y="-20.7" font-family="Helvetica,sans-Serif" font-size="14.00">value = [0.377, 0.623]</text>
<text text-anchor="middle" x="1063.25" y="-5.7" font-family="Helvetica,sans-Serif" font-size="14.00">class = &gt;50K</text>
</g>
<!-- 12&#45;&gt;13 -->
<g id="edge13" class="edge">
<title>12&#45;&gt;13</title>
<path fill="none" stroke="black" d="M1063.25,-103.73C1063.25,-95.7 1063.25,-87.24 1063.25,-79.11"/>
<polygon fill="black" stroke="black" points="1066.75,-79.3 1063.25,-69.3 1059.75,-79.3 1066.75,-79.3"/>
</g>
<!-- 14 -->
<g id="node15" class="node">
<title>14</title>
<path fill="#6fb8ec" stroke="black" d="M1289.5,-68C1289.5,-68 1167,-68 1167,-68 1161,-68 1155,-62 1155,-56 1155,-56 1155,-12 1155,-12 1155,-6 1161,0 1167,0 1167,0 1289.5,0 1289.5,0 1295.5,0 1301.5,-6 1301.5,-12 1301.5,-12 1301.5,-56 1301.5,-56 1301.5,-62 1295.5,-68 1289.5,-68"/>
<text text-anchor="middle" x="1228.25" y="-50.7" font-family="Helvetica,sans-Serif" font-size="14.00">entropy = 0.751</text>
<text text-anchor="middle" x="1228.25" y="-35.7" font-family="Helvetica,sans-Serif" font-size="14.00">samples = 2.6%</text>
<text text-anchor="middle" x="1228.25" y="-20.7" font-family="Helvetica,sans-Serif" font-size="14.00">value = [0.215, 0.785]</text>
<text text-anchor="middle" x="1228.25" y="-5.7" font-family="Helvetica,sans-Serif" font-size="14.00">class = &gt;50K</text>
</g>
<!-- 12&#45;&gt;14 -->
<g id="edge14" class="edge">
<title>12&#45;&gt;14</title>
<path fill="none" stroke="black" d="M1124.69,-103.73C1139.18,-94.11 1154.6,-83.87 1169,-74.32"/>
<polygon fill="black" stroke="black" points="1170.41,-76.92 1176.81,-68.47 1166.54,-71.09 1170.41,-76.92"/>
</g>
</g>
</svg>