<?xml version="1.0" encoding="UTF-8" standalone="no"?>
<!DOCTYPE svg PUBLIC "-//W3C//DTD SVG 1.1//EN"
 "http://www.w3.org/Graphics/SVG/1.1/DTD/svg11.dtd">
<!-- Generated by graphviz version 9.0.0 (20230911.1827)
 -->
<!-- Title: Tree Pages: 1 -->
<svg width="1294pt" height="433pt"
 viewBox="0.00 0.00 1293.50 433.00" xmlns="http://www.w3.org/2000/svg" xmlns:xlink="http://www.w3.org/1999/xlink">
<g id="graph0" class="graph" transform="scale(1 1) rotate(0) translate(4 429)">
<title>Tree</title>
<polygon fill="white" stroke="none" points="-4,4 -4,-429 1289.5,-429 1289.5,4 -4,4"/>
<!-- 0 -->
<g id="node1" class="node">
<title>0</title>
<path fill="#f5cfb4" stroke="black" d="M695.5,-425C695.5,-425 573,-425 573,-425 567,-425 561,-419 561,-413 561,-413 561,-354 561,-354 561,-348 567,-342 573,-342 573,-342 695.5,-342 695.5,-342 701.5,-342 707.5,-348 707.5,-354 707.5,-354 707.5,-413 707.5,-413 707.5,-419 701.5,-425 695.5,-425"/>
<text text-anchor="middle" x="634.25" y="-407.7" font-family="Helvetica,sans-Serif" font-size="14.00">Sex_male &lt;= 0.5</text>
<text text-anchor="middle" x="634.25" y="-392.7" font-family="Helvetica,sans-Serif" font-size="14.00">entropy = 0.961</text>
<text text-anchor="middle" x="634.25" y="-377.7" font-family="Helvetica,sans-Serif" font-size="14.00">samples = 100.0%</text>
<text text-anchor="middle" x="634.25" y="-362.7" font-family="Helvetica,sans-Serif" font-size="14.00">value = [0.616, 0.384]</text>
<text text-anchor="middle" x="634.25" y="-347.7" font-family="Helvetica,sans-Serif" font-size="14.00">class = died</text>
</g>
<!-- 1 -->
<g id="node2" class="node">
<title>1</title>
<path fill="#82c1ef" stroke="black" d="M534.5,-306C534.5,-306 412,-306 412,-306 406,-306 400,-300 400,-294 400,-294 400,-235 400,-235 400,-229 406,-223 412,-223 412,-223 534.5,-223 534.5,-223 540.5,-223 546.5,-229 546.5,-235 546.5,-235 546.5,-294 546.5,-294 546.5,-300 540.5,-306 534.5,-306"/>
<text text-anchor="middle" x="473.25" y="-288.7" font-family="Helvetica,sans-Serif" font-size="14.00">Pclass &lt;= 2.5</text>
<text text-anchor="middle" x="473.25" y="-273.7" font-family="Helvetica,sans-Serif" font-size="14.00">entropy = 0.839</text>
<text text-anchor="middle" x="473.25" y="-258.7" font-family="Helvetica,sans-Serif" font-size="14.00">samples = 35.3%</text>
<text text-anchor="middle" x="473.25" y="-243.7" font-family="Helvetica,sans-Serif" font-size="14.00">value = [0.268, 0.732]</text>
<text text-anchor="middle" x="473.25" y="-228.7" font-family="Helvetica,sans-Serif" font-size="14.00">class = survived</text>
</g>
<!-- 0&#45;&gt;1 -->
<g id="edge1" class="edge">
<title>0&#45;&gt;1</title>
<path fill="none" stroke="black" d="M577.94,-341.58C565.19,-332.32 551.56,-322.41 538.48,-312.9"/>
<polygon fill="black" stroke="black" points="540.9,-310.34 530.75,-307.29 536.78,-316 540.9,-310.34"/>
<text text-anchor="middle" x="533.44" y="-325.29" font-family="Helvetica,sans-Serif" font-size="14.00">True</text>
</g>
<!-- 8 -->
<g id="node9" class="node">
<title>8</title>
<path fill="#eb9f69" stroke="black" d="M860.5,-306C860.5,-306 738,-306 738,-306 732,-306 726,-300 726,-294 726,-294 726,-235 726,-235 726,-229 732,-223 738,-223 738,-223 860.5,-223 860.5,-223 866.5,-223 872.5,-229 872.5,-235 872.5,-235 872.5,-294 872.5,-294 872.5,-300 866.5,-306 860.5,-306"/>
<text text-anchor="middle" x="799.25" y="-288.7" font-family="Helvetica,sans-Serif" font-size="14.00">Pclass &lt;= 1.5</text>
<text text-anchor="middle" x="799.25" y="-273.7" font-family="Helvetica,sans-Serif" font-size="14.00">entropy = 0.709</text>
<text text-anchor="middle" x="799.25" y="-258.7" font-family="Helvetica,sans-Serif" font-size="14.00">samples = 64.7%</text>
<text text-anchor="middle" x="799.25" y="-243.7" font-family="Helvetica,sans-Serif" font-size="14.00">value = [0.806, 0.194]</text>
<text text-anchor="middle" x="799.25" y="-228.7" font-family="Helvetica,sans-Serif" font-size="14.00">class = died</text>
</g>
<!-- 0&#45;&gt;8 -->
<g id="edge8" class="edge">
<title>0&#45;&gt;8</title>
<path fill="none" stroke="black" d="M691.96,-341.58C705.02,-332.32 719,-322.41 732.4,-312.9"/>
<polygon fill="black" stroke="black" points="734.21,-315.91 740.34,-307.27 730.16,-310.2 734.21,-315.91"/>
<text text-anchor="middle" x="737.38" y="-325.24" font-family="Helvetica,sans-Serif" font-size="14.00">False</text>
</g>
<!-- 2 -->
<g id="node3" class="node">
<title>2</title>
<path fill="#42a1e6" stroke="black" d="M291.5,-187C291.5,-187 169,-187 169,-187 163,-187 157,-181 157,-175 157,-175 157,-116 157,-116 157,-110 163,-104 169,-104 169,-104 291.5,-104 291.5,-104 297.5,-104 303.5,-110 303.5,-116 303.5,-116 303.5,-175 303.5,-175 303.5,-181 297.5,-187 291.5,-187"/>
<text text-anchor="middle" x="230.25" y="-169.7" font-family="Helvetica,sans-Serif" font-size="14.00">Fare &lt;= 149.035</text>
<text text-anchor="middle" x="230.25" y="-154.7" font-family="Helvetica,sans-Serif" font-size="14.00">entropy = 0.258</text>
<text text-anchor="middle" x="230.25" y="-139.7" font-family="Helvetica,sans-Serif" font-size="14.00">samples = 18.5%</text>
<text text-anchor="middle" x="230.25" y="-124.7" font-family="Helvetica,sans-Serif" font-size="14.00">value = [0.043, 0.957]</text>
<text text-anchor="middle" x="230.25" y="-109.7" font-family="Helvetica,sans-Serif" font-size="14.00">class = survived</text>
</g>
<!-- 1&#45;&gt;2 -->
<g id="edge2" class="edge">
<title>1&#45;&gt;2</title>
<path fill="none" stroke="black" d="M399.68,-228.08C372.69,-215.08 341.93,-200.27 314.1,-186.87"/>
<polygon fill="black" stroke="black" points="315.88,-183.84 305.35,-182.66 312.84,-190.15 315.88,-183.84"/>
</g>
<!-- 5 -->
<g id="node6" class="node">
<title>5</title>
<path fill="#fef8f4" stroke="black" d="M534.5,-187C534.5,-187 412,-187 412,-187 406,-187 400,-181 400,-175 400,-175 400,-116 400,-116 400,-110 406,-104 412,-104 412,-104 534.5,-104 534.5,-104 540.5,-104 546.5,-110 546.5,-116 546.5,-116 546.5,-175 546.5,-175 546.5,-181 540.5,-187 534.5,-187"/>
<text text-anchor="middle" x="473.25" y="-169.7" font-family="Helvetica,sans-Serif" font-size="14.00">Fare &lt;= 7.888</text>
<text text-anchor="middle" x="473.25" y="-154.7" font-family="Helvetica,sans-Serif" font-size="14.00">entropy = 0.999</text>
<text text-anchor="middle" x="473.25" y="-139.7" font-family="Helvetica,sans-Serif" font-size="14.00">samples = 16.9%</text>
<text text-anchor="middle" x="473.25" y="-124.7" font-family="Helvetica,sans-Serif" font-size="14.00">value = [0.514, 0.486]</text>
<text text-anchor="middle" x="473.25" y="-109.7" font-family="Helvetica,sans-Serif" font-size="14.00">class = died</text>
</g>
<!-- 1&#45;&gt;5 -->
<g id="edge5" class="edge">
<title>1&#45;&gt;5</title>
<path fill="none" stroke="black" d="M473.25,-222.58C473.25,-214.79 473.25,-206.53 473.25,-198.45"/>
<polygon fill="black" stroke="black" points="476.75,-198.71 473.25,-188.71 469.75,-198.71 476.75,-198.71"/>
</g>
<!-- 3 -->
<g id="node4" class="node">
<title>3</title>
<path fill="#3fa0e6" stroke="black" d="M134.5,-68C134.5,-68 12,-68 12,-68 6,-68 0,-62 0,-56 0,-56 0,-12 0,-12 0,-6 6,0 12,0 12,0 134.5,0 134.5,0 140.5,0 146.5,-6 146.5,-12 146.5,-12 146.5,-56 146.5,-56 146.5,-62 140.5,-68 134.5,-68"/>
<text text-anchor="middle" x="73.25" y="-50.7" font-family="Helvetica,sans-Serif" font-size="14.00">entropy = 0.184</text>
<text text-anchor="middle" x="73.25" y="-35.7" font-family="Helvetica,sans-Serif" font-size="14.00">samples = 17.2%</text>
<text text-anchor="middle" x="73.25" y="-20.7" font-family="Helvetica,sans-Serif" font-size="14.00">value = [0.028, 0.972]</text>
<text text-anchor="middle" x="73.25" y="-5.7" font-family="Helvetica,sans-Serif" font-size="14.00">class = survived</text>
</g>
<!-- 2&#45;&gt;3 -->
<g id="edge3" class="edge">
<title>2&#45;&gt;3</title>
<path fill="none" stroke="black" d="M171.79,-103.73C158.26,-94.29 143.88,-84.26 130.41,-74.86"/>
<polygon fill="black" stroke="black" points="132.69,-72.19 122.49,-69.34 128.69,-77.93 132.69,-72.19"/>
</g>
<!-- 4 -->
<g id="node5" class="node">
<title>4</title>
<path fill="#7bbeee" stroke="black" d="M284,-68C284,-68 176.5,-68 176.5,-68 170.5,-68 164.5,-62 164.5,-56 164.5,-56 164.5,-12 164.5,-12 164.5,-6 170.5,0 176.5,0 176.5,0 284,0 284,0 290,0 296,-6 296,-12 296,-12 296,-56 296,-56 296,-62 290,-68 284,-68"/>
<text text-anchor="middle" x="230.25" y="-50.7" font-family="Helvetica,sans-Serif" font-size="14.00">entropy = 0.811</text>
<text text-anchor="middle" x="230.25" y="-35.7" font-family="Helvetica,sans-Serif" font-size="14.00">samples = 1.3%</text>
<text text-anchor="middle" x="230.25" y="-20.7" font-family="Helvetica,sans-Serif" font-size="14.00">value = [0.25, 0.75]</text>
<text text-anchor="middle" x="230.25" y="-5.7" font-family="Helvetica,sans-Serif" font-size="14.00">class = survived</text>
</g>
<!-- 2&#45;&gt;4 -->
<g id="edge4" class="edge">
<title>2&#45;&gt;4</title>
<path fill="none" stroke="black" d="M230.25,-103.73C230.25,-95.88 230.25,-87.63 230.25,-79.67"/>
<polygon fill="black" stroke="black" points="233.75,-79.81 230.25,-69.81 226.75,-79.81 233.75,-79.81"/>
</g>
<!-- 6 -->
<g id="node7" class="node">
<title>6</title>
<path fill="#6fb8ec" stroke="black" d="M448.5,-68C448.5,-68 326,-68 326,-68 320,-68 314,-62 314,-56 314,-56 314,-12 314,-12 314,-6 320,0 326,0 326,0 448.5,0 448.5,0 454.5,0 460.5,-6 460.5,-12 460.5,-12 460.5,-56 460.5,-56 460.5,-62 454.5,-68 448.5,-68"/>
<text text-anchor="middle" x="387.25" y="-50.7" font-family="Helvetica,sans-Serif" font-size="14.00">entropy = 0.75</text>
<text text-anchor="middle" x="387.25" y="-35.7" font-family="Helvetica,sans-Serif" font-size="14.00">samples = 4.5%</text>
<text text-anchor="middle" x="387.25" y="-20.7" font-family="Helvetica,sans-Serif" font-size="14.00">value = [0.214, 0.786]</text>
<text text-anchor="middle" x="387.25" y="-5.7" font-family="Helvetica,sans-Serif" font-size="14.00">class = survived</text>
</g>
<!-- 5&#45;&gt;6 -->
<g id="edge6" class="edge">
<title>5&#45;&gt;6</title>
<path fill="none" stroke="black" d="M441.23,-103.73C434.42,-95.06 427.22,-85.9 420.38,-77.18"/>
<polygon fill="black" stroke="black" points="423.27,-75.19 414.34,-69.49 417.76,-79.52 423.27,-75.19"/>
</g>
<!-- 7 -->
<g id="node8" class="node">
<title>7</title>
<path fill="#f5cdb1" stroke="black" d="M613.5,-68C613.5,-68 491,-68 491,-68 485,-68 479,-62 479,-56 479,-56 479,-12 479,-12 479,-6 485,0 491,0 491,0 613.5,0 613.5,0 619.5,0 625.5,-6 625.5,-12 625.5,-12 625.5,-56 625.5,-56 625.5,-62 619.5,-68 613.5,-68"/>
<text text-anchor="middle" x="552.25" y="-50.7" font-family="Helvetica,sans-Serif" font-size="14.00">entropy = 0.956</text>
<text text-anchor="middle" x="552.25" y="-35.7" font-family="Helvetica,sans-Serif" font-size="14.00">samples = 12.4%</text>
<text text-anchor="middle" x="552.25" y="-20.7" font-family="Helvetica,sans-Serif" font-size="14.00">value = [0.623, 0.377]</text>
<text text-anchor="middle" x="552.25" y="-5.7" font-family="Helvetica,sans-Serif" font-size="14.00">class = died</text>
</g>
<!-- 5&#45;&gt;7 -->
<g id="edge7" class="edge">
<title>5&#45;&gt;7</title>
<path fill="none" stroke="black" d="M502.67,-103.73C508.85,-95.15 515.39,-86.09 521.62,-77.46"/>
<polygon fill="black" stroke="black" points="524.33,-79.68 527.34,-69.53 518.65,-75.59 524.33,-79.68"/>
</g>
<!-- 9 -->
<g id="node10" class="node">
<title>9</title>
<path fill="#f6d6be" stroke="black" d="M860.5,-187C860.5,-187 738,-187 738,-187 732,-187 726,-181 726,-175 726,-175 726,-116 726,-116 726,-110 732,-104 738,-104 738,-104 860.5,-104 860.5,-104 866.5,-104 872.5,-110 872.5,-116 872.5,-116 872.5,-175 872.5,-175 872.5,-181 866.5,-187 860.5,-187"/>
<text text-anchor="middle" x="799.25" y="-169.7" font-family="Helvetica,sans-Serif" font-size="14.00">Age &lt;= 43.0</text>
<text text-anchor="middle" x="799.25" y="-154.7" font-family="Helvetica,sans-Serif" font-size="14.00">entropy = 0.972</text>
<text text-anchor="middle" x="799.25" y="-139.7" font-family="Helvetica,sans-Serif" font-size="14.00">samples = 14.0%</text>
<text text-anchor="middle" x="799.25" y="-124.7" font-family="Helvetica,sans-Serif" font-size="14.00">value = [0.598, 0.402]</text>
<text text-anchor="middle" x="799.25" y="-109.7" font-family="Helvetica,sans-Serif" font-size="14.00">class = died</text>
</g>
<!-- 8&#45;&gt;9 -->
<g id="edge9" class="edge">
<title>8&#45;&gt;9</title>
<path fill="none" stroke="black" d="M799.25,-222.58C799.25,-214.79 799.25,-206.53 799.25,-198.45"/>
<polygon fill="black" stroke="black" points="802.75,-198.71 799.25,-188.71 795.75,-198.71 802.75,-198.71"/>
</g>
<!-- 12 -->
<g id="node13" class="node">
<title>12</title>
<path fill="#e99558" stroke="black" d="M1108.5,-187C1108.5,-187 986,-187 986,-187 980,-187 974,-181 974,-175 974,-175 974,-116 974,-116 974,-110 980,-104 986,-104 986,-104 1108.5,-104 1108.5,-104 1114.5,-104 1120.5,-110 1120.5,-116 1120.5,-116 1120.5,-175 1120.5,-175 1120.5,-181 1114.5,-187 1108.5,-187"/>
<text text-anchor="middle" x="1047.25" y="-169.7" font-family="Helvetica,sans-Serif" font-size="14.00">Age &lt;= 6.5</text>
<text text-anchor="middle" x="1047.25" y="-154.7" font-family="Helvetica,sans-Serif" font-size="14.00">entropy = 0.574</text>
<text text-anchor="middle" x="1047.25" y="-139.7" font-family="Helvetica,sans-Serif" font-size="14.00">samples = 50.7%</text>
<text text-anchor="middle" x="1047.25" y="-124.7" font-family="Helvetica,sans-Serif" font-size="14.00">value = [0.864, 0.136]</text>
<text text-anchor="middle" x="1047.25" y="-109.7" font-family="Helvetica,sans-Serif" font-size="14.00">class = died</text>
</g>
<!-- 8&#45;&gt;12 -->
<g id="edge12" class="edge">
<title>8&#45;&gt;12</title>
<path fill="none" stroke="black" d="M872.99,-228.71C901.47,-215.28 934.21,-199.83 963.57,-185.98"/>
<polygon fill="black" stroke="black" points="964.88,-189.23 972.43,-181.8 961.89,-182.9 964.88,-189.23"/>
</g>
<!-- 10 -->
<g id="node11" class="node">
<title>10</title>
<path fill="#f8fcfe" stroke="black" d="M778.5,-68C778.5,-68 656,-68 656,-68 650,-68 644,-62 644,-56 644,-56 644,-12 644,-12 644,-6 650,0 656,0 656,0 778.5,0 778.5,0 784.5,0 790.5,-6 790.5,-12 790.5,-12 790.5,-56 790.5,-56 790.5,-62 784.5,-68 778.5,-68"/>
<text text-anchor="middle" x="717.25" y="-50.7" font-family="Helvetica,sans-Serif" font-size="14.00">entropy = 1.0</text>
<text text-anchor="middle" x="717.25" y="-35.7" font-family="Helvetica,sans-Serif" font-size="14.00">samples = 9.5%</text>
<text text-anchor="middle" x="717.25" y="-20.7" font-family="Helvetica,sans-Serif" font-size="14.00">value = [0.492, 0.508]</text>
<text text-anchor="middle" x="717.25" y="-5.7" font-family="Helvetica,sans-Serif" font-size="14.00">class = survived</text>
</g>
<!-- 9&#45;&gt;10 -->
<g id="edge10" class="edge">
<title>9&#45;&gt;10</title>
<path fill="none" stroke="black" d="M768.72,-103.73C762.3,-95.15 755.51,-86.09 749.04,-77.46"/>
<polygon fill="black" stroke="black" points="751.89,-75.42 743.09,-69.51 746.29,-79.61 751.89,-75.42"/>
</g>
<!-- 11 -->
<g id="node12" class="node">
<title>11</title>
<path fill="#eb9c64" stroke="black" d="M943.5,-68C943.5,-68 821,-68 821,-68 815,-68 809,-62 809,-56 809,-56 809,-12 809,-12 809,-6 815,0 821,0 821,0 943.5,0 943.5,0 949.5,0 955.5,-6 955.5,-12 955.5,-12 955.5,-56 955.5,-56 955.5,-62 949.5,-68 943.5,-68"/>
<text text-anchor="middle" x="882.25" y="-50.7" font-family="Helvetica,sans-Serif" font-size="14.00">entropy = 0.677</text>
<text text-anchor="middle" x="882.25" y="-35.7" font-family="Helvetica,sans-Serif" font-size="14.00">samples = 4.5%</text>
<text text-anchor="middle" x="882.25" y="-20.7" font-family="Helvetica,sans-Serif" font-size="14.00">value = [0.821, 0.179]</text>
<text text-anchor="middle" x="882.25" y="-5.7" font-family="Helvetica,sans-Serif" font-size="14.00">class = died</text>
</g>
<!-- 9&#45;&gt;11 -->
<g id="edge11" class="edge">
<title>9&#45;&gt;11</title>
<path fill="none" stroke="black" d="M830.16,-103.73C836.65,-95.15 843.52,-86.09 850.07,-77.46"/>
<polygon fill="black" stroke="black" points="852.84,-79.59 856.09,-69.51 847.26,-75.36 852.84,-79.59"/>
</g>
<!-- 13 -->
<g id="node14" class="node">
<title>13</title>
<path fill="#9ccef2" stroke="black" d="M1108.5,-68C1108.5,-68 986,-68 986,-68 980,-68 974,-62 974,-56 974,-56 974,-12 974,-12 974,-6 980,0 986,0 986,0 1108.5,0 1108.5,0 1114.5,0 1120.5,-6 1120.5,-12 1120.5,-12 1120.5,-56 1120.5,-56 1120.5,-62 1114.5,-68 1108.5,-68"/>
<text text-anchor="middle" x="1047.25" y="-50.7" font-family="Helvetica,sans-Serif" font-size="14.00">entropy = 0.918</text>
<text text-anchor="middle" x="1047.25" y="-35.7" font-family="Helvetica,sans-Serif" font-size="14.00">samples = 2.9%</text>
<text text-anchor="middle" x="1047.25" y="-20.7" font-family="Helvetica,sans-Serif" font-size="14.00">value = [0.333, 0.667]</text>
<text text-anchor="middle" x="1047.25" y="-5.7" font-family="Helvetica,sans-Serif" font-size="14.00">class = survived</text>
</g>
<!-- 12&#45;&gt;13 -->
<g id="edge13" class="edge">
<title>12&#45;&gt;13</title>
<path fill="none" stroke="black" d="M1047.25,-103.73C1047.25,-95.88 1047.25,-87.63 1047.25,-79.67"/>
<polygon fill="black" stroke="black" points="1050.75,-79.81 1047.25,-69.81 1043.75,-79.81 1050.75,-79.81"/>
</g>
<!-- 14 -->
<g id="node15" class="node">
<title>14</title>
<path fill="#e89050" stroke="black" d="M1273.5,-68C1273.5,-68 1151,-68 1151,-68 1145,-68 1139,-62 1139,-56 1139,-56 1139,-12 1139,-12 1139,-6 1145,0 1151,0 1151,0 1273.5,0 1273.5,0 1279.5,0 1285.5,-6 1285.5,-12 1285.5,-12 1285.5,-56 1285.5,-56 1285.5,-62 1279.5,-68 1273.5,-68"/>
<text text-anchor="middle" x="1212.25" y="-50.7" font-family="Helvetica,sans-Serif" font-size="14.00">entropy = 0.482</text>
<text text-anchor="middle" x="1212.25" y="-35.7" font-family="Helvetica,sans-Serif" font-size="14.00">samples = 47.8%</text>
<text text-anchor="middle" x="1212.25" y="-20.7" font-family="Helvetica,sans-Serif" font-size="14.00">value = [0.896, 0.104]</text>
<text text-anchor="middle" x="1212.25" y="-5.7" font-family="Helvetica,sans-Serif" font-size="14.00">class = died</text>
</g>
<!-- 12&#45;&gt;14 -->
<g id="edge14" class="edge">
<title>12&#45;&gt;14</title>
<path fill="none" stroke="black" d="M1108.69,-103.73C1123.05,-94.2 1138.31,-84.07 1152.59,-74.59"/>
<polygon fill="black" stroke="black" points="1154.15,-77.76 1160.55,-69.31 1150.28,-71.92 1154.15,-77.76"/>
</g>
</g>
</svg>